GSerif01-MicroRegular03.ufo
<glyph name="F" format="1">
  <advance width="640"/>
  <unicode hex="0046"/>
  <outline>
    <contour>
      <point x="148" y="0" type="line"/>
      <point x="241" y="0" type="line"/>
      <point x="241" y="710" type="line"/>
      <point x="148" y="710" type="line"/>
    </contour>
    <contour>
      <point x="211" y="395" type="line"/>
      <point x="211" y="335" type="line"/>
      <point x="507" y="327" type="line"/>
      <point x="507" y="400" type="line"/>
    </contour>
    <contour>
      <point x="605" y="710" type="line"/>
      <point x="52" y="710" type="line"/>
      <point x="52" y="658" type="line"/>
      <point x="63" y="658" type="line"/>
      <point x="112" y="658"/>
      <point x="148" y="651"/>
      <point x="148" y="622" type="curve"/>
      <point x="202" y="648" type="line"/>
      <point x="408" y="648" type="line" smooth="yes"/>
      <point x="494" y="648"/>
      <point x="528" y="641"/>
      <point x="533" y="605" type="curve" smooth="yes"/>
      <point x="546" y="518" type="line"/>
      <point x="605" y="518" type="line"/>
    </contour>
    <contour>
      <point x="52" y="0" type="line"/>
      <point x="355" y="0" type="line"/>
      <point x="355" y="52" type="line"/>
      <point x="336" y="52" type="line" smooth="yes"/>
      <point x="293" y="52"/>
      <point x="241" y="55"/>
      <point x="241" y="91" type="curve"/>
      <point x="148" y="88" type="line"/>
      <point x="148" y="59"/>
      <point x="112" y="52"/>
      <point x="63" y="52" type="curve" smooth="yes"/>
      <point x="52" y="52" type="line"/>
    </contour>
  </outline>
</glyph>
<glyph name="I" format="1">
  <advance width="390"/>
  <unicode hex="0049"/>
  <outline>
    <contour>
      <point x="148" y="0" type="line"/>
      <point x="241" y="0" type="line"/>
      <point x="241" y="710" type="line"/>
      <point x="148" y="710" type="line"/>
    </contour>
    <contour>
      <point x="52" y="52" type="line"/>
      <point x="52" y="0" type="line"/>
      <point x="337" y="0" type="line"/>
      <point x="337" y="52" type="line"/>
      <point x="326" y="52" type="line"/>
      <point x="277" y="52"/>
      <point x="241" y="59"/>
      <point x="241" y="88" type="curve"/>
      <point x="148" y="88" type="line"/>
      <point x="148" y="59"/>
      <point x="112" y="52"/>
      <point x="63" y="52" type="curve"/>
    </contour>
    <contour>
      <point x="52" y="710" type="line"/>
      <point x="52" y="658" type="line"/>
      <point x="63" y="658" type="line"/>
      <point x="112" y="658"/>
      <point x="148" y="651"/>
      <point x="148" y="622" type="curve"/>
      <point x="241" y="622" type="line"/>
      <point x="241" y="651"/>
      <point x="277" y="658"/>
      <point x="326" y="658" type="curve"/>
      <point x="337" y="658" type="line"/>
      <point x="337" y="710" type="line"/>
    </contour>
  </outline>
</glyph>
<glyph name="J" format="1">
  <advance width="564"/>
  <unicode hex="004A"/>
  <outline>
    <contour>
      <point x="55" y="10" type="line"/>
      <point x="93" y="-3"/>
      <point x="134" y="-10"/>
      <point x="191" y="-10" type="curve" smooth="yes"/>
      <point x="324" y="-10"/>
      <point x="415" y="58"/>
      <point x="415" y="247" type="curve" smooth="yes"/>
      <point x="415" y="710" type="line"/>
      <point x="322" y="710" type="line"/>
      <point x="322" y="247" type="line" smooth="yes"/>
      <point x="322" y="97"/>
      <point x="271" y="52"/>
      <point x="189" y="52" type="curve" smooth="yes"/>
      <point x="143" y="52"/>
      <point x="103" y="61"/>
      <point x="55" y="79" type="curve"/>
    </contour>
    <contour>
      <point x="210" y="710" type="line"/>
      <point x="210" y="658" type="line"/>
      <point x="231" y="658" type="line" smooth="yes"/>
      <point x="285" y="658"/>
      <point x="322" y="651"/>
      <point x="322" y="622" type="curve"/>
      <point x="415" y="622" type="line"/>
      <point x="415" y="651"/>
      <point x="452" y="658"/>
      <point x="503" y="658" type="curve" smooth="yes"/>
      <point x="524" y="658" type="line"/>
      <point x="524" y="710" type="line"/>
    </contour>
  </outline>
</glyph>
<glyph name="N" format="1">
  <advance width="799"/>
  <unicode hex="004E"/>
  <outline>
    <contour>
      <point x="274" y="710" type="line"/>
      <point x="52" y="710" type="line"/>
      <point x="52" y="658" type="line"/>
      <point x="63" y="658" type="line" smooth="yes"/>
      <point x="112" y="658"/>
      <point x="148" y="651"/>
      <point x="148" y="622" type="curve" smooth="yes"/>
      <point x="148" y="0" type="line"/>
      <point x="218" y="0" type="line"/>
      <point x="218" y="696" type="line"/>
      <point x="200" y="671" type="line"/>
      <point x="549" y="0" type="line"/>
      <point x="651" y="0" type="line"/>
      <point x="651" y="710" type="line"/>
      <point x="581" y="710" type="line"/>
      <point x="581" y="65" type="line"/>
      <point x="607" y="69" type="line"/>
    </contour>
    <contour>
      <point x="52" y="52" type="line"/>
      <point x="52" y="0" type="line"/>
      <point x="314" y="0" type="line"/>
      <point x="314" y="52" type="line"/>
      <point x="300" y="52" type="line" smooth="yes"/>
      <point x="267" y="52"/>
      <point x="218" y="55"/>
      <point x="218" y="62" type="curve"/>
      <point x="148" y="88" type="line"/>
      <point x="148" y="59"/>
      <point x="112" y="52"/>
      <point x="63" y="52" type="curve" smooth="yes"/>
    </contour>
    <contour>
      <point x="747" y="658" type="line"/>
      <point x="747" y="710" type="line"/>
      <point x="485" y="710" type="line"/>
      <point x="485" y="658" type="line"/>
      <point x="499" y="658" type="line" smooth="yes"/>
      <point x="532" y="658"/>
      <point x="581" y="655"/>
      <point x="581" y="648" type="curve"/>
      <point x="651" y="622" type="line"/>
      <point x="651" y="651"/>
      <point x="687" y="658"/>
      <point x="736" y="658" type="curve" smooth="yes"/>
    </contour>
  </outline>
</glyph>
<glyph name="O" format="1">
  <advance width="820"/>
  <unicode hex="004F"/>
  <outline>
    <contour>
      <point x="410" y="-10" type="curve" smooth="yes"/>
      <point x="607" y="-10"/>
      <point x="760" y="139"/>
      <point x="760" y="355" type="curve" smooth="yes"/>
      <point x="760" y="572"/>
      <point x="607" y="720"/>
      <point x="410" y="720" type="curve" smooth="yes"/>
      <point x="213" y="720"/>
      <point x="61" y="572"/>
      <point x="61" y="355" type="curve" smooth="yes"/>
      <point x="61" y="139"/>
      <point x="213" y="-10"/>
    </contour>
    <contour>
      <point x="410" y="52" type="curve" smooth="yes"/>
      <point x="259" y="52"/>
      <point x="159" y="169"/>
      <point x="159" y="355" type="curve" smooth="yes"/>
      <point x="159" y="541"/>
      <point x="259" y="658"/>
      <point x="410" y="658" type="curve" smooth="yes"/>
      <point x="561" y="658"/>
      <point x="662" y="541"/>
      <point x="662" y="355" type="curve" smooth="yes"/>
      <point x="662" y="169"/>
      <point x="561" y="52"/>
    </contour>
  </outline>
</glyph>
<glyph name="P" format="1">
  <advance width="682"/>
  <unicode hex="0050"/>
  <outline>
    <contour>
      <point x="151" y="0" type="line"/>
      <point x="244" y="0" type="line"/>
      <point x="244" y="710" type="line"/>
      <point x="151" y="710" type="line"/>
    </contour>
    <contour>
      <point x="362" y="285" type="line" smooth="yes"/>
      <point x="526" y="285"/>
      <point x="628" y="374"/>
      <point x="628" y="501" type="curve"/>
      <point x="628" y="628"/>
      <point x="531" y="710"/>
      <point x="367" y="710" type="curve" smooth="yes"/>
      <point x="52" y="710" type="line"/>
      <point x="52" y="648" type="line"/>
      <point x="151" y="648" type="line"/>
      <point x="151" y="648" type="line"/>
      <point x="199" y="648" type="line"/>
      <point x="365" y="648" type="line" smooth="yes"/>
      <point x="476" y="648"/>
      <point x="531" y="593"/>
      <point x="531" y="500" type="curve"/>
      <point x="531" y="407"/>
      <point x="476" y="344"/>
      <point x="360" y="344" type="curve" smooth="yes"/>
      <point x="200" y="344" type="line"/>
      <point x="200" y="285" type="line"/>
    </contour>
    <contour>
      <point x="345" y="0" type="line"/>
      <point x="345" y="62" type="line"/>
      <point x="244" y="62" type="line"/>
      <point x="244" y="62" type="line"/>
      <point x="151" y="62" type="line"/>
      <point x="151" y="62" type="line"/>
      <point x="52" y="62" type="line"/>
      <point x="52" y="0" type="line"/>
    </contour>
  </outline>
</glyph>
<glyph name="R" format="1">
  <advance width="680"/>
  <unicode hex="0052"/>
  <outline>
    <contour>
      <point x="148" y="0" type="line"/>
      <point x="241" y="0" type="line"/>
      <point x="241" y="710" type="line"/>
      <point x="148" y="710" type="line"/>
    </contour>
    <contour>
      <point x="320" y="300" type="line" smooth="yes"/>
      <point x="481" y="300"/>
      <point x="583" y="383"/>
      <point x="583" y="505" type="curve" smooth="yes"/>
      <point x="583" y="628"/>
      <point x="486" y="710"/>
      <point x="325" y="710" type="curve" smooth="yes"/>
      <point x="52" y="710" type="line"/>
      <point x="52" y="658" type="line"/>
      <point x="63" y="658" type="line" smooth="yes"/>
      <point x="112" y="658"/>
      <point x="148" y="651"/>
      <point x="148" y="622" type="curve"/>
      <point x="201" y="648" type="line"/>
      <point x="323" y="648" type="line" smooth="yes"/>
      <point x="431" y="648"/>
      <point x="486" y="593"/>
      <point x="486" y="504" type="curve" smooth="yes"/>
      <point x="486" y="416"/>
      <point x="434" y="359"/>
      <point x="319" y="359" type="curve" smooth="yes"/>
      <point x="197" y="359" type="line"/>
      <point x="197" y="300" type="line"/>
    </contour>
    <contour>
      <point x="341" y="321" type="line"/>
      <point x="510" y="0" type="line"/>
      <point x="619" y="0" type="line"/>
      <point x="605" y="30" type="line"/>
      <point x="432" y="335" type="line"/>
    </contour>
    <contour>
      <point x="656" y="0" type="line"/>
      <point x="656" y="52" type="line"/>
      <point x="646" y="52" type="line" smooth="yes"/>
      <point x="608" y="52"/>
      <point x="590" y="57"/>
      <point x="572" y="88" type="curve"/>
      <point x="564" y="0" type="line"/>
    </contour>
    <contour>
      <point x="52" y="52" type="line"/>
      <point x="52" y="0" type="line"/>
      <point x="323" y="0" type="line"/>
      <point x="323" y="52" type="line"/>
      <point x="314" y="52" type="line" smooth="yes"/>
      <point x="290" y="52"/>
      <point x="241" y="55"/>
      <point x="241" y="62" type="curve"/>
      <point x="148" y="88" type="line"/>
      <point x="148" y="59"/>
      <point x="112" y="52"/>
      <point x="63" y="52" type="curve" smooth="yes"/>
    </contour>
  </outline>
</glyph>
<glyph name="V" format="1">
  <advance width="699"/>
  <unicode hex="0056"/>
  <outline>
    <contour>
      <point x="643" y="710" type="line"/>
      <point x="576" y="710" type="line"/>
      <point x="339" y="0" type="line"/>
      <point x="407" y="0" type="line"/>
    </contour>
    <contour>
      <point x="152" y="710" type="line"/>
      <point x="57" y="710" type="line"/>
      <point x="300" y="0" type="line"/>
      <point x="381" y="0" type="line"/>
      <point x="376" y="36" type="line"/>
    </contour>
    <contour>
      <point x="689" y="710" type="line"/>
      <point x="455" y="710" type="line"/>
      <point x="455" y="658" type="line"/>
      <point x="470" y="658" type="line" smooth="yes"/>
      <point x="510" y="658"/>
      <point x="558" y="655"/>
      <point x="555" y="647" type="curve"/>
      <point x="556" y="647"/>
      <point x="599" y="629"/>
      <point x="614" y="623" type="curve"/>
      <point x="625" y="654"/>
      <point x="644" y="658"/>
      <point x="682" y="658" type="curve" smooth="yes"/>
      <point x="689" y="658" type="line"/>
    </contour>
    <contour>
      <point x="10" y="710" type="line"/>
      <point x="10" y="658" type="line"/>
      <point x="17" y="658" type="line" smooth="yes"/>
      <point x="55" y="658"/>
      <point x="75" y="657"/>
      <point x="86" y="625" type="curve"/>
      <point x="173" y="647" type="line"/>
      <point x="171" y="654"/>
      <point x="217" y="658"/>
      <point x="257" y="658" type="curve" smooth="yes"/>
      <point x="274" y="658" type="line"/>
      <point x="274" y="710" type="line"/>
    </contour>
  </outline>
</glyph>
<glyph name="X" format="1">
  <advance width="764"/>
  <unicode hex="0058"/>
  <outline>
    <contour>
      <point x="70" y="707" type="line"/>
      <point x="347" y="339" type="line"/>
      <point x="353" y="335" type="line"/>
      <point x="609" y="0" type="line"/>
      <point x="711" y="3" type="line"/>
      <point x="421" y="386" type="line"/>
      <point x="415" y="389" type="line"/>
      <point x="173" y="710" type="line"/>
    </contour>
    <contour>
      <point x="335" y="376" type="line"/>
      <point x="48" y="3" type="line"/>
      <point x="127" y="0" type="line"/>
      <point x="380" y="331" type="line"/>
    </contour>
    <contour>
      <point x="428" y="358" type="line"/>
      <point x="698" y="708" type="line"/>
      <point x="619" y="710" type="line"/>
      <point x="382" y="400" type="line"/>
    </contour>
    <contour>
      <point x="46" y="710" type="line"/>
      <point x="46" y="658" type="line"/>
      <point x="51" y="658" type="line" smooth="yes"/>
      <point x="88" y="658"/>
      <point x="108" y="656"/>
      <point x="131" y="625" type="curve"/>
      <point x="219" y="648" type="line"/>
      <point x="219" y="655"/>
      <point x="265" y="658"/>
      <point x="301" y="658" type="curve" smooth="yes"/>
      <point x="318" y="658" type="line"/>
      <point x="318" y="710" type="line"/>
    </contour>
    <contour>
      <point x="719" y="710" type="line"/>
      <point x="468" y="710" type="line"/>
      <point x="468" y="658" type="line"/>
      <point x="483" y="658" type="line" smooth="yes"/>
      <point x="521" y="658"/>
      <point x="566" y="651"/>
      <point x="566" y="640" type="curve"/>
      <point x="625" y="613" type="line"/>
      <point x="653" y="649"/>
      <point x="677" y="658"/>
      <point x="714" y="658" type="curve" smooth="yes"/>
      <point x="719" y="658" type="line"/>
    </contour>
    <contour>
      <point x="739" y="0" type="line"/>
      <point x="739" y="52" type="line"/>
      <point x="729" y="52" type="line" smooth="yes"/>
      <point x="692" y="52"/>
      <point x="672" y="55"/>
      <point x="649" y="86" type="curve"/>
      <point x="562" y="62" type="line"/>
      <point x="562" y="55"/>
      <point x="516" y="52"/>
      <point x="480" y="52" type="curve" smooth="yes"/>
      <point x="463" y="52" type="line"/>
      <point x="463" y="0" type="line"/>
    </contour>
    <contour>
      <point x="25" y="0" type="line"/>
      <point x="280" y="0" type="line"/>
      <point x="280" y="52" type="line"/>
      <point x="265" y="52" type="line" smooth="yes"/>
      <point x="227" y="52"/>
      <point x="180" y="59"/>
      <point x="180" y="70" type="curve"/>
      <point x="121" y="98" type="line"/>
      <point x="93" y="61"/>
      <point x="71" y="52"/>
      <point x="35" y="52" type="curve" smooth="yes"/>
      <point x="25" y="52" type="line"/>
    </contour>
  </outline>
</glyph>
<glyph name="b" format="1">
  <advance width="713"/>
  <unicode hex="0062"/>
  <outline>
    <contour>
      <point x="32" y="750" type="line"/>
      <point x="207" y="750" type="line"/>
      <point x="207" y="130" type="line"/>
      <point x="196" y="112" type="line"/>
      <point x="184" y="-2" type="line"/>
      <point x="118" y="-2" type="line"/>
      <point x="118" y="649" type="line"/>
      <point x="118" y="678"/>
      <point x="94" y="687"/>
      <point x="42" y="694" type="curve"/>
      <point x="32" y="696" type="line"/>
    </contour>
    <contour>
      <point x="558" y="287" type="curve" smooth="yes"/>
      <point x="558" y="423"/>
      <point x="499" y="511"/>
      <point x="392" y="511" type="curve" smooth="yes"/>
      <point x="303" y="511"/>
      <point x="231" y="457"/>
      <point x="184" y="355" type="curve"/>
      <point x="142" y="378" type="line"/>
      <point x="219" y="515"/>
      <point x="283" y="576"/>
      <point x="398" y="576" type="curve" smooth="yes"/>
      <point x="551" y="576"/>
      <point x="652" y="460"/>
      <point x="652" y="287" type="curve" smooth="yes"/>
      <point x="652" y="111"/>
      <point x="547" y="-12"/>
      <point x="389" y="-12" type="curve" smooth="yes"/>
      <point x="276" y="-12"/>
      <point x="212" y="46"/>
      <point x="141" y="182" type="curve"/>
      <point x="184" y="205" type="line"/>
      <point x="231" y="104"/>
      <point x="302" y="54"/>
      <point x="387" y="54" type="curve" smooth="yes"/>
      <point x="499" y="54"/>
      <point x="558" y="147"/>
    </contour>
  </outline>
</glyph>
<glyph name="c" format="1">
  <advance width="616"/>
  <unicode hex="0063"/>
  <outline>
    <contour>
      <point x="330" y="-12" type="curve" smooth="yes"/>
      <point x="443" y="-12"/>
      <point x="532" y="47"/>
      <point x="565" y="145" type="curve"/>
      <point x="486" y="145" type="line"/>
      <point x="459" y="87"/>
      <point x="406" y="53"/>
      <point x="332" y="53" type="curve" smooth="yes"/>
      <point x="224" y="53"/>
      <point x="146" y="137"/>
      <point x="146" y="263" type="curve" smooth="yes"/>
      <point x="146" y="389"/>
      <point x="222" y="472"/>
      <point x="327" y="472" type="curve" smooth="yes"/>
      <point x="408" y="472"/>
      <point x="464" y="435"/>
      <point x="489" y="379" type="curve"/>
      <point x="497" y="424"/>
      <point x="485" y="448"/>
      <point x="458" y="447" type="curve"/>
      <point x="458" y="324" type="line"/>
      <point x="548" y="324" type="line"/>
      <point x="548" y="436" type="line"/>
      <point x="520" y="487"/>
      <point x="440" y="537"/>
      <point x="327" y="537" type="curve" smooth="yes"/>
      <point x="171" y="537"/>
      <point x="52" y="423"/>
      <point x="52" y="263" type="curve" smooth="yes"/>
      <point x="52" y="103"/>
      <point x="173" y="-12"/>
    </contour>
  </outline>
</glyph>
<glyph name="d" format="1">
  <advance width="707"/>
  <unicode hex="0064"/>
  <outline>
    <contour>
      <point x="148" y="280" type="curve" smooth="yes"/>
      <point x="148" y="418"/>
      <point x="209" y="511"/>
      <point x="322" y="511" type="curve" smooth="yes"/>
      <point x="407" y="511"/>
      <point x="478" y="462"/>
      <point x="521" y="359" type="curve"/>
      <point x="565" y="382" type="line"/>
      <point x="497" y="520"/>
      <point x="433" y="576"/>
      <point x="319" y="576" type="curve" smooth="yes"/>
      <point x="160" y="576"/>
      <point x="54" y="456"/>
      <point x="54" y="280" type="curve" smooth="yes"/>
      <point x="54" y="105"/>
      <point x="157" y="-12"/>
      <point x="311" y="-12" type="curve" smooth="yes"/>
      <point x="426" y="-12"/>
      <point x="489" y="50"/>
      <point x="564" y="186" type="curve"/>
      <point x="522" y="208" type="line"/>
      <point x="477" y="108"/>
      <point x="406" y="54"/>
      <point x="318" y="54" type="curve" smooth="yes"/>
      <point x="209" y="54"/>
      <point x="148" y="143"/>
    </contour>
    <contour>
      <point x="499" y="678" type="curve" smooth="yes"/>
      <point x="499" y="122" type="line"/>
      <point x="509" y="116" type="line"/>
      <point x="509" y="0" type="line"/>
      <point x="674" y="0" type="line"/>
      <point x="674" y="47" type="line"/>
      <point x="673" y="47" type="line"/>
      <point x="624" y="47"/>
      <point x="588" y="54"/>
      <point x="588" y="83" type="curve"/>
      <point x="588" y="780" type="line"/>
      <point x="413" y="780" type="line"/>
      <point x="413" y="725" type="line"/>
      <point x="423" y="723" type="line" smooth="yes"/>
      <point x="474" y="713"/>
      <point x="499" y="707"/>
    </contour>
  </outline>
</glyph>
<glyph name="e" format="1">
  <advance width="604"/>
  <unicode hex="0065"/>
  <outline>
    <contour>
      <point x="149" y="276" type="curve" smooth="yes"/>
      <point x="149" y="422"/>
      <point x="221" y="511"/>
      <point x="316" y="511" type="curve"/>
      <point x="414" y="511"/>
      <point x="453" y="441"/>
      <point x="456" y="293" type="curve"/>
      <point x="481" y="314" type="line"/>
      <point x="121" y="314" type="line"/>
      <point x="122" y="257" type="line"/>
      <point x="551" y="257" type="line"/>
      <point x="552" y="469"/>
      <point x="472" y="575"/>
      <point x="316" y="575" type="curve"/>
      <point x="170" y="575"/>
      <point x="58" y="454"/>
      <point x="58" y="276" type="curve" smooth="yes"/>
      <point x="58" y="89"/>
      <point x="184" y="-12"/>
      <point x="334" y="-12" type="curve" smooth="yes"/>
      <point x="428" y="-12"/>
      <point x="506" y="33"/>
      <point x="545" y="107" type="curve"/>
      <point x="493" y="140" type="line"/>
      <point x="458" y="86"/>
      <point x="410" y="55"/>
      <point x="336" y="55" type="curve" smooth="yes"/>
      <point x="238" y="55"/>
      <point x="149" y="121"/>
    </contour>
  </outline>
</glyph>
<glyph name="f" format="1">
  <advance width="435"/>
  <unicode hex="0066"/>
  <outline>
    <contour>
      <point x="54" y="52" type="line"/>
      <point x="54" y="0" type="line"/>
      <point x="361" y="0" type="line"/>
      <point x="361" y="52" type="line"/>
      <point x="351" y="52" type="line"/>
      <point x="293" y="52"/>
      <point x="249" y="55"/>
      <point x="249" y="62" type="curve"/>
      <point x="160" y="88" type="line"/>
      <point x="160" y="59"/>
      <point x="124" y="52"/>
      <point x="65" y="52" type="curve"/>
    </contour>
    <contour>
      <point x="54" y="565" type="line"/>
      <point x="54" y="499" type="line"/>
      <point x="405" y="499" type="line"/>
      <point x="405" y="565" type="line"/>
    </contour>
    <contour>
      <point x="411" y="705" type="line"/>
      <point x="504" y="705" type="line"/>
      <point x="504" y="786" type="line"/>
      <point x="478" y="825"/>
      <point x="426" y="844"/>
      <point x="356" y="844" type="curve" smooth="yes"/>
      <point x="260" y="844"/>
      <point x="160" y="791.0"/>
      <point x="160" y="657" type="curve" smooth="yes"/>
      <point x="160" y="0" type="line"/>
      <point x="249" y="0" type="line"/>
      <point x="249" y="657" type="line" smooth="yes"/>
      <point x="249" y="751.0"/>
      <point x="300" y="784"/>
      <point x="356" y="784" type="curve" smooth="yes"/>
      <point x="398" y="784"/>
      <point x="425" y="771"/>
      <point x="445" y="736" type="curve"/>
      <point x="462" y="755"/>
      <point x="440" y="785"/>
      <point x="411" y="784" type="curve"/>
    </contour>
  </outline>
</glyph>
<glyph name="i" format="1">
  <advance width="344"/>
  <unicode hex="0069"/>
  <outline>
    <contour>
      <point x="51" y="0" type="line"/>
      <point x="307" y="0" type="line"/>
      <point x="307" y="47" type="line"/>
      <point x="309" y="47" type="line"/>
      <point x="260" y="47"/>
      <point x="224" y="54"/>
      <point x="224" y="83" type="curve"/>
      <point x="135" y="83" type="line"/>
      <point x="126" y="54"/>
      <point x="90" y="47"/>
      <point x="50" y="47" type="curve"/>
      <point x="51" y="47" type="line"/>
    </contour>
    <contour>
      <point x="51" y="565" type="line"/>
      <point x="51" y="510" type="line"/>
      <point x="59" y="508" type="line"/>
      <point x="111" y="501"/>
      <point x="135" y="492"/>
      <point x="135" y="463" type="curve"/>
      <point x="135" y="0" type="line"/>
      <point x="224" y="0" type="line"/>
      <point x="224" y="565" type="line"/>
    </contour>
    <contour>
      <point x="174" y="652" type="curve" smooth="yes"/>
      <point x="210" y="652"/>
      <point x="238" y="676"/>
      <point x="238" y="716" type="curve" smooth="yes"/>
      <point x="238" y="754"/>
      <point x="210" y="779"/>
      <point x="174" y="779" type="curve" smooth="yes"/>
      <point x="137" y="779"/>
      <point x="110" y="754"/>
      <point x="110" y="716" type="curve" smooth="yes"/>
      <point x="110" y="676"/>
      <point x="137" y="652"/>
    </contour>
  </outline>
</glyph>
<glyph name="k" format="1">
  <advance width="639"/>
  <unicode hex="006B"/>
  <outline>
    <contour>
      <point x="619" y="0" type="line"/>
      <point x="619" y="64" type="line"/>
      <point x="560" y="64" type="line"/>
      <point x="560" y="64" type="line"/>
      <point x="444" y="63" type="line"/>
      <point x="444" y="63" type="line"/>
      <point x="369" y="63" type="line"/>
      <point x="369" y="0" type="line"/>
    </contour>
    <contour>
      <point x="587" y="466" type="line"/>
      <point x="587" y="528" type="line"/>
      <point x="351" y="528" type="line"/>
      <point x="351" y="467" type="line"/>
      <point x="424" y="467" type="line"/>
      <point x="424" y="467" type="line"/>
      <point x="520" y="466" type="line"/>
      <point x="520" y="466" type="line"/>
    </contour>
    <contour>
      <point x="325" y="311" type="line"/>
      <point x="314" y="270" type="line"/>
      <point x="552" y="500" type="line"/>
      <point x="535" y="528" type="line"/>
      <point x="498" y="528" type="line"/>
      <point x="244" y="283" type="line"/>
      <point x="244" y="278" type="line"/>
      <point x="502" y="0" type="line"/>
      <point x="581" y="0" type="line"/>
      <point x="579" y="43" type="line"/>
    </contour>
    <contour>
      <point x="45" y="0" type="line"/>
      <point x="293" y="0" type="line"/>
      <point x="293" y="63" type="line"/>
      <point x="223" y="63" type="line"/>
      <point x="223" y="63" type="line"/>
      <point x="134" y="64" type="line"/>
      <point x="134" y="64" type="line"/>
      <point x="45" y="64" type="line"/>
    </contour>
    <contour>
      <point x="45" y="750" type="line"/>
      <point x="45" y="685" type="line"/>
      <point x="134" y="685" type="line"/>
      <point x="134" y="685" type="line"/>
      <point x="134" y="0" type="line"/>
      <point x="223" y="0" type="line"/>
      <point x="223" y="750" type="line"/>
    </contour>
  </outline>
</glyph>
<glyph name="l" format="1">
  <advance width="337"/>
  <unicode hex="006C"/>
  <outline>
    <contour>
      <point x="53" y="0" type="line"/>
      <point x="309" y="0" type="line"/>
      <point x="309" y="47" type="line"/>
      <point x="310" y="47" type="line"/>
      <point x="261" y="47"/>
      <point x="225" y="54"/>
      <point x="225" y="83" type="curve"/>
      <point x="136" y="83" type="line"/>
      <point x="136" y="54"/>
      <point x="100" y="47"/>
      <point x="51" y="47" type="curve"/>
      <point x="53" y="47" type="line"/>
    </contour>
    <contour>
      <point x="53" y="750" type="line"/>
      <point x="53" y="693" type="line"/>
      <point x="60" y="691" type="line"/>
      <point x="112" y="684"/>
      <point x="136" y="675"/>
      <point x="136" y="646" type="curve"/>
      <point x="136" y="0" type="line"/>
      <point x="225" y="0" type="line"/>
      <point x="225" y="750" type="line"/>
    </contour>
  </outline>
</glyph>
<glyph name="m" format="1">
  <advance width="1000"/>
  <unicode hex="006D"/>
  <outline>
    <contour>
      <point x="380" y="508" type="curve" smooth="yes"/>
      <point x="441" y="508"/>
      <point x="461" y="473"/>
      <point x="461" y="397" type="curve" smooth="yes"/>
      <point x="461" y="0" type="line"/>
      <point x="550" y="0" type="line"/>
      <point x="550" y="407" type="line"/>
      <point x="550" y="523"/>
      <point x="488" y="576"/>
      <point x="396" y="576" type="curve" smooth="yes"/>
      <point x="294" y="576"/>
      <point x="237" y="515"/>
      <point x="161" y="388" type="curve"/>
      <point x="196" y="365" type="line"/>
      <point x="247" y="458"/>
      <point x="306" y="508"/>
    </contour>
    <contour>
      <point x="705" y="508" type="curve" smooth="yes"/>
      <point x="766" y="508"/>
      <point x="785" y="473"/>
      <point x="785" y="397" type="curve" smooth="yes"/>
      <point x="785" y="0" type="line"/>
      <point x="874" y="0" type="line"/>
      <point x="874" y="407" type="line"/>
      <point x="874" y="523"/>
      <point x="812" y="576"/>
      <point x="720" y="576" type="curve" smooth="yes"/>
      <point x="620" y="576"/>
      <point x="562" y="514"/>
      <point x="486" y="388" type="curve"/>
      <point x="521" y="365" type="line"/>
      <point x="572" y="458"/>
      <point x="631" y="508"/>
    </contour>
    <contour>
      <point x="50" y="0" type="line"/>
      <point x="298" y="0" type="line"/>
      <point x="298" y="47" type="line"/>
      <point x="297" y="47" type="line"/>
      <point x="269" y="47"/>
      <point x="225" y="50"/>
      <point x="225" y="57" type="curve"/>
      <point x="136" y="83" type="line"/>
      <point x="136" y="54"/>
      <point x="100" y="47"/>
      <point x="51" y="47" type="curve"/>
      <point x="50" y="47" type="line"/>
    </contour>
    <contour>
      <point x="50" y="565" type="line"/>
      <point x="50" y="506" type="line"/>
      <point x="60" y="504" type="line" smooth="yes"/>
      <point x="111" y="494"/>
      <point x="136" y="487"/>
      <point x="136" y="459" type="curve" smooth="yes"/>
      <point x="136" y="0" type="line"/>
      <point x="225" y="0" type="line"/>
      <point x="225" y="442" type="line"/>
      <point x="215" y="456" type="line"/>
      <point x="215" y="565" type="line"/>
    </contour>
    <contour>
      <point x="388" y="0" type="line"/>
      <point x="622" y="0" type="line"/>
      <point x="622" y="47" type="line"/>
      <point x="622" y="47" type="line"/>
      <point x="594" y="47"/>
      <point x="550" y="50"/>
      <point x="550" y="57" type="curve"/>
      <point x="461" y="57" type="line"/>
      <point x="461" y="50"/>
      <point x="417" y="47"/>
      <point x="389" y="47" type="curve"/>
      <point x="388" y="47" type="line"/>
    </contour>
    <contour>
      <point x="967" y="0" type="line"/>
      <point x="967" y="47" type="line"/>
      <point x="959" y="47" type="line"/>
      <point x="910" y="47"/>
      <point x="874" y="54"/>
      <point x="874" y="83" type="curve"/>
      <point x="785" y="57" type="line"/>
      <point x="785" y="50"/>
      <point x="741" y="47"/>
      <point x="713" y="47" type="curve"/>
      <point x="713" y="47" type="line"/>
      <point x="713" y="0" type="line"/>
    </contour>
  </outline>
</glyph>
<glyph name="o" format="1">
  <advance width="664"/>
  <unicode hex="006F"/>
  <outline>
    <contour>
      <point x="332" y="-13" type="curve" smooth="yes"/>
      <point x="496" y="-13"/>
      <point x="610" y="105"/>
      <point x="610" y="281" type="curve" smooth="yes"/>
      <point x="610" y="457"/>
      <point x="496" y="575"/>
      <point x="332" y="575" type="curve" smooth="yes"/>
      <point x="167" y="575"/>
      <point x="54" y="457"/>
      <point x="54" y="281" type="curve" smooth="yes"/>
      <point x="54" y="105"/>
      <point x="167" y="-13"/>
    </contour>
    <contour>
      <point x="332" y="51" type="curve" smooth="yes"/>
      <point x="223" y="51"/>
      <point x="148" y="142"/>
      <point x="148" y="281" type="curve" smooth="yes"/>
      <point x="148" y="421"/>
      <point x="223" y="511"/>
      <point x="332" y="511" type="curve" smooth="yes"/>
      <point x="441" y="511"/>
      <point x="516" y="420"/>
      <point x="516" y="281" type="curve" smooth="yes"/>
      <point x="516" y="141"/>
      <point x="441" y="51"/>
    </contour>
  </outline>
</glyph>
<glyph name="p" format="1">
  <advance width="724"/>
  <unicode hex="0070"/>
  <outline>
    <contour>
      <point x="50" y="565" type="line"/>
      <point x="50" y="511" type="line"/>
      <point x="60" y="509" type="line" smooth="yes"/>
      <point x="111" y="499"/>
      <point x="136" y="493"/>
      <point x="136" y="464" type="curve" smooth="yes"/>
      <point x="136" y="-210" type="line"/>
      <point x="225" y="-210" type="line"/>
      <point x="225" y="440" type="line"/>
      <point x="214" y="453" type="line"/>
      <point x="214" y="565" type="line"/>
    </contour>
    <contour>
      <point x="576" y="287" type="curve" smooth="yes"/>
      <point x="576" y="147"/>
      <point x="516" y="54"/>
      <point x="405" y="54" type="curve" smooth="yes"/>
      <point x="320" y="54"/>
      <point x="249" y="104"/>
      <point x="202" y="205" type="curve"/>
      <point x="159" y="182" type="line"/>
      <point x="230" y="46"/>
      <point x="294" y="-12"/>
      <point x="407" y="-12" type="curve" smooth="yes"/>
      <point x="565" y="-12"/>
      <point x="670" y="111"/>
      <point x="670" y="287" type="curve" smooth="yes"/>
      <point x="670" y="460"/>
      <point x="569" y="576"/>
      <point x="416" y="576" type="curve" smooth="yes"/>
      <point x="301" y="576"/>
      <point x="238" y="515"/>
      <point x="160" y="378" type="curve"/>
      <point x="202" y="355" type="line"/>
      <point x="249" y="457"/>
      <point x="321" y="511"/>
      <point x="409" y="511" type="curve" smooth="yes"/>
      <point x="516" y="511"/>
      <point x="576" y="423"/>
    </contour>
    <contour>
      <point x="50" y="-223" type="line"/>
      <point x="331" y="-223" type="line"/>
      <point x="331" y="-176" type="line"/>
      <point x="302" y="-176" type="line" smooth="yes"/>
      <point x="274" y="-176"/>
      <point x="225" y="-173"/>
      <point x="225" y="-166" type="curve"/>
      <point x="136" y="-140" type="line"/>
      <point x="136" y="-169"/>
      <point x="100" y="-176"/>
      <point x="51" y="-176" type="curve"/>
      <point x="50" y="-176" type="line"/>
    </contour>
  </outline>
</glyph>
<glyph name="q" format="1">
  <advance width="695"/>
  <unicode hex="0071"/>
  <outline>
    <contour>
      <point x="589" y="567" type="line"/>
      <point x="522" y="567" type="line"/>
      <point x="509" y="454" type="line"/>
      <point x="500" y="434" type="line"/>
      <point x="500" y="-216" type="line"/>
      <point x="589" y="-216" type="line"/>
    </contour>
    <contour>
      <point x="148" y="280" type="curve" smooth="yes"/>
      <point x="148" y="418"/>
      <point x="210" y="511"/>
      <point x="322" y="511" type="curve" smooth="yes"/>
      <point x="408" y="511"/>
      <point x="479" y="462"/>
      <point x="522" y="359" type="curve"/>
      <point x="566" y="382" type="line"/>
      <point x="498" y="520"/>
      <point x="433" y="576"/>
      <point x="320" y="576" type="curve" smooth="yes"/>
      <point x="160" y="576"/>
      <point x="54" y="456"/>
      <point x="54" y="280" type="curve" smooth="yes"/>
      <point x="54" y="105"/>
      <point x="157" y="-12"/>
      <point x="311" y="-12" type="curve" smooth="yes"/>
      <point x="427" y="-12"/>
      <point x="489" y="50"/>
      <point x="565" y="186" type="curve"/>
      <point x="522" y="208" type="line"/>
      <point x="477" y="108"/>
      <point x="407" y="54"/>
      <point x="319" y="54" type="curve" smooth="yes"/>
      <point x="210" y="54"/>
      <point x="148" y="143"/>
    </contour>
    <contour>
      <point x="675" y="-223" type="line"/>
      <point x="675" y="-176" type="line"/>
      <point x="674" y="-176" type="line"/>
      <point x="625" y="-176"/>
      <point x="589" y="-169"/>
      <point x="589" y="-140" type="curve"/>
      <point x="500" y="-166" type="line"/>
      <point x="500" y="-173"/>
      <point x="451" y="-176"/>
      <point x="423" y="-176" type="curve" smooth="yes"/>
      <point x="394" y="-176" type="line"/>
      <point x="394" y="-223" type="line"/>
    </contour>
  </outline>
</glyph>
<glyph name="w" format="1">
  <advance width="859"/>
  <unicode hex="0077"/>
  <outline>
    <contour>
      <point x="257" y="528" type="line"/>
      <point x="9" y="528" type="line"/>
      <point x="9" y="466" type="line"/>
      <point x="70" y="466" type="line"/>
      <point x="70" y="466" type="line"/>
      <point x="160" y="466" type="line"/>
      <point x="160" y="466" type="line"/>
      <point x="257" y="466" type="line"/>
    </contour>
    <contour>
      <point x="277" y="0" type="line"/>
      <point x="275" y="37" type="line"/>
      <point x="144" y="528" type="line"/>
      <point x="53" y="526" type="line"/>
      <point x="203" y="0" type="line"/>
    </contour>
    <contour>
      <point x="604" y="0" type="line"/>
      <point x="651" y="0" type="line"/>
      <point x="800" y="526" type="line"/>
      <point x="734" y="528" type="line"/>
      <point x="605" y="43" type="line"/>
    </contour>
    <contour>
      <point x="622" y="528" type="line"/>
      <point x="622" y="466" type="line"/>
      <point x="717" y="466" type="line"/>
      <point x="717" y="466" type="line"/>
      <point x="783" y="466" type="line"/>
      <point x="783" y="466" type="line"/>
      <point x="845" y="466" type="line"/>
      <point x="845" y="528" type="line"/>
    </contour>
    <contour>
      <point x="415" y="456" type="line"/>
      <point x="553" y="0" type="line"/>
      <point x="628" y="0" type="line"/>
      <point x="624" y="37" type="line"/>
      <point x="478" y="528" type="line"/>
      <point x="400" y="528" type="line"/>
      <point x="255" y="44" type="line"/>
      <point x="253" y="0" type="line"/>
      <point x="300" y="0" type="line"/>
      <point x="440" y="463" type="line"/>
    </contour>
  </outline>
</glyph>
<glyph name="f.oval" format="1">
  <advance width="410"/>
  <outline>
    <contour>
      <point x="36" y="500" type="line"/>
      <point x="36" y="430" type="line"/>
      <point x="391" y="430" type="line"/>
      <point x="391" y="500" type="line"/>
    </contour>
    <contour>
      <point x="436" y="674" type="curve"/>
      <point x="436" y="713"/>
      <point x="390" y="733"/>
      <point x="390" y="696" type="curve" smooth="yes"/>
      <point x="390" y="641"/>
      <point x="423" y="602"/>
      <point x="465" y="602" type="curve" smooth="yes"/>
      <point x="497" y="602"/>
      <point x="517" y="621"/>
      <point x="517" y="657" type="curve" smooth="yes"/>
      <point x="517" y="727"/>
      <point x="438" y="761"/>
      <point x="354" y="761" type="curve" smooth="yes"/>
      <point x="257" y="761"/>
      <point x="146" y="713"/>
      <point x="146" y="571" type="curve" smooth="yes"/>
      <point x="146" y="0" type="line"/>
      <point x="231" y="0" type="line"/>
      <point x="231" y="571" type="line"/>
      <point x="231" y="674"/>
      <point x="305" y="695"/>
      <point x="348" y="695" type="curve" smooth="yes"/>
      <point x="389" y="695"/>
      <point x="413" y="688"/>
    </contour>
    <contour>
      <point x="361" y="0" type="line"/>
      <point x="361" y="70" type="line"/>
      <point x="231" y="70" type="line"/>
      <point x="231" y="70" type="line"/>
      <point x="146" y="70" type="line"/>
      <point x="146" y="70" type="line"/>
      <point x="36" y="70" type="line"/>
      <point x="36" y="0" type="line"/>
    </contour>
  </outline>
</glyph>
<glyph name="s.bulb" format="1">
  <advance width="508"/>
  <outline>
    <contour>
      <point x="249" y="-11" type="curve" smooth="yes"/>
      <point x="378" y="-11"/>
      <point x="459" y="53"/>
      <point x="459" y="149" type="curve" smooth="yes"/>
      <point x="459" y="337"/>
      <point x="142" y="281"/>
      <point x="142" y="397" type="curve" smooth="yes"/>
      <point x="142" y="440"/>
      <point x="176" y="468"/>
      <point x="251" y="468" type="curve" smooth="yes"/>
      <point x="314" y="468"/>
      <point x="341" y="456"/>
      <point x="361" y="428" type="curve" smooth="yes"/>
      <point x="375" y="410"/>
      <point x="387" y="394"/>
      <point x="407" y="394" type="curve" smooth="yes"/>
      <point x="430" y="394"/>
      <point x="445" y="422"/>
      <point x="445" y="462" type="curve" smooth="yes"/>
      <point x="445" y="484"/>
      <point x="444" y="502"/>
      <point x="428" y="512" type="curve" smooth="yes"/>
      <point x="404" y="527"/>
      <point x="339" y="538"/>
      <point x="260" y="538" type="curve"/>
      <point x="131" y="538"/>
      <point x="59" y="479"/>
      <point x="59" y="390" type="curve" smooth="yes"/>
      <point x="59" y="198"/>
      <point x="374" y="256"/>
      <point x="374" y="144" type="curve" smooth="yes"/>
      <point x="374" y="84"/>
      <point x="323" y="61"/>
      <point x="255" y="61" type="curve" smooth="yes"/>
      <point x="188" y="61"/>
      <point x="158" y="79"/>
      <point x="137" y="103" type="curve" smooth="yes"/>
      <point x="116" y="128"/>
      <point x="104" y="152"/>
      <point x="78" y="152" type="curve" smooth="yes"/>
      <point x="56" y="152"/>
      <point x="41" y="117"/>
      <point x="41" y="80" type="curve" smooth="yes"/>
      <point x="41" y="60"/>
      <point x="44" y="41"/>
      <point x="56" y="29" type="curve" smooth="yes"/>
      <point x="76" y="9"/>
      <point x="157" y="-11"/>
    </contour>
  </outline>
</glyph>
<glyph name="s.srf" format="1">
  <advance width="522"/>
  <outline>
    <contour>
      <point x="88" y="140" type="curve"/>
      <point x="118" y="24"/>
      <point x="210" y="-11"/>
      <point x="293" y="-11" type="curve" smooth="yes"/>
      <point x="407" y="-11"/>
      <point x="480" y="52"/>
      <point x="480" y="148" type="curve" smooth="yes"/>
      <point x="480" y="349"/>
      <point x="142" y="262"/>
      <point x="142" y="395" type="curve" smooth="yes"/>
      <point x="142" y="442"/>
      <point x="177" y="476"/>
      <point x="240" y="476" type="curve" smooth="yes"/>
      <point x="299" y="476"/>
      <point x="350" y="441"/>
      <point x="367" y="374" type="curve"/>
      <point x="464" y="374" type="line"/>
      <point x="464" y="528" type="line"/>
      <point x="389" y="528" type="line"/>
      <point x="389" y="401" type="line"/>
      <point x="390" y="398"/>
      <point x="402" y="407"/>
      <point x="405" y="405" type="curve"/>
      <point x="396" y="477"/>
      <point x="331" y="538"/>
      <point x="237" y="538" type="curve" smooth="yes"/>
      <point x="131" y="538"/>
      <point x="58" y="477"/>
      <point x="58" y="385" type="curve" smooth="yes"/>
      <point x="58" y="179"/>
      <point x="393" y="265"/>
      <point x="393" y="138" type="curve" smooth="yes"/>
      <point x="393" y="78"/>
      <point x="349" y="51"/>
      <point x="289" y="51" type="curve" smooth="yes"/>
      <point x="210" y="51"/>
      <point x="156" y="91"/>
      <point x="133" y="172" type="curve"/>
      <point x="31" y="172" type="line"/>
      <point x="31" y="0" type="line"/>
      <point x="106" y="0" type="line"/>
      <point x="106" y="150" type="line"/>
      <point x="105" y="152"/>
      <point x="91" y="140"/>
    </contour>
  </outline>
</glyph>
